<svg xmlns="http://www.w3.org/2000/svg" viewBox="0 0 283.46 283.49"><defs><style>.a{isolation:isolate;}.b{fill:#57ad62;}.c{fill:#282828;opacity:0.39;mix-blend-mode:multiply;}.d{fill:#e18f99;}.e{fill:#ebb8c8;}.f{fill:#d59cc2;}</style></defs><title>Ресурс 1</title><g class="a"><circle class="b" cx="141.73" cy="141.73" r="141.73"/><path class="c" d="M265.68,210c-11.71,18.16-28,48.25-81.25,67.25-57.73,15.75-90-3.58-87.42-1L50.43,229.79,135,140.18l24.8-122.94L283.44,143.75C283.8,153.38,278.32,189.61,265.68,210Z"/><path class="d" d="M122.59,16.51s-6.83,14.18-3.49,23c3.57,9.4,7.39,29.26,7.83,35.47.55,7.84,3.38,58.51,3.38,58.51L93.52,155.74c-.92,0,11.3,16.12,11.3,16.12L139.16,150l35.26,24.74L188.66,155,151.51,132s1.22-49.93,1.91-57.76,6.45-27.38,8.37-36.44-2.16-20-2-20.59A129.83,129.83,0,0,0,122.59,16.51Z"/><path class="e" d="M131.86,25c-5.66-1.05-11.26-2.08-12.25-1.36-1.78,1.3-2.76,10.75-2.3,12s4.76.77,7.06.92c.75.05,2.45.36,4.54.77,4.33.85,10.38,2.14,13.28,2.45,4.31.46,22.26-2.61,22.72-5.53s.92-9.21-1.07-10.6-15.51,3.07-20.58,3.07C141,26.74,136.41,25.87,131.86,25Z"/><path class="e" d="M118.57,41.72c.93-1.74,11.94,1.6,15.32,1.45S158.79,42,160.61,41s3.32-1.69,3.53-.15-1.38,8.6-3.53,9.21-9.52,4.07-17,3.49-20.59-.5-21.51-1S118,42.8,118.57,41.72Z"/><path class="e" d="M123.14,56.07s14.29,2.15,19,1.69,17-2.15,17.81-1.69-2.27,9.57-3,10-10.65,1.8-15.63,1.8S127,67,125.6,66.51,122.53,58.07,123.14,56.07Z"/><path class="e" d="M125.91,69.74s12,3.69,16.28,3.07,12.43-1.72,13.81-2.33,1.07,8.78.31,9.86-13,3.38-14.12,3.07-14,0-15.06-1.23S125.29,71.73,125.91,69.74Z"/><path class="e" d="M123,136.72s4-2.3,4.3-4.3,0-2,1.05-3.26,8.58,1.72,12.36,1.42,11.15-1.13,12.38-1.72,0,1.72.77,2.64a26.25,26.25,0,0,0,3.53,3.38c1.47,1.06-12,21.06-15.36,19.75-2.09-.81-3.15-2.55-6.74-.67S125.27,142.26,123,136.72Z"/><path class="e" d="M127,85.25s11.68,2.61,15.21,2.15,11.66-3.07,12.74-2.61,1,8.91-.15,9.21-13.55,1.21-15,1.14-11.86.62-12-.76S125.43,87.82,127,85.25Z"/><path class="e" d="M128.21,100c4,0,6.71,1.33,14,1.41A29.36,29.36,0,0,0,154.47,99c1.54-.61,1,9.44-.44,9.9a56.93,56.93,0,0,1-11.84,1.8c-4,0-12.85-.28-13.46-1.2S127.9,102.42,128.21,100Z"/><path class="e" d="M128.15,113.71s7.68,2.28,13.67,1.8c2.21-.18,10.29-1.51,11.52-1.51s2.3,10.75,0,11.06-7.37,1.54-9.83,1.54-13.36-.46-14.59-.92S127.5,117.21,128.15,113.71Z"/><path class="f" d="M118.5,96.51c3.63,26,13.53,76.47,4.51,100-14.14,7-38.19,9.25-65.57,37.53-18.13-3.52-24.72-55.77-15.44-99C51.21,92.18,111.42,45.71,118.5,96.51Z"/><path class="f" d="M163.81,99.76c-3.63,26-17.67,74.56-8.64,98.12,14.14,7,39,9.18,66.36,37.45,18.13-3.52,24.72-55.77,15.44-99S170.95,48.59,163.81,99.76Z"/></g></svg>